<svg id="visual" viewBox="0 0 900 600" width="900" height="600" xmlns="http://www.w3.org/2000/svg" xmlns:xlink="http://www.w3.org/1999/xlink" version="1.1"><path d="M0 79L13.7 81C27.3 83 54.7 87 82 90C109.3 93 136.7 95 163.8 100C191 105 218 113 245.2 117C272.3 121 299.7 121 327 108C354.3 95 381.7 69 409 58C436.3 47 463.7 51 491 60C518.3 69 545.7 83 573 91C600.3 99 627.7 101 654.8 94C682 87 709 71 736.2 71C763.3 71 790.7 87 818 96C845.3 105 872.7 107 886.3 108L900 109L900 0L886.3 0C872.7 0 845.3 0 818 0C790.7 0 763.3 0 736.2 0C709 0 682 0 654.8 0C627.7 0 600.3 0 573 0C545.7 0 518.3 0 491 0C463.7 0 436.3 0 409 0C381.7 0 354.3 0 327 0C299.7 0 272.3 0 245.2 0C218 0 191 0 163.8 0C136.7 0 109.3 0 82 0C54.7 0 27.3 0 13.7 0L0 0Z" fill="#d4d5d5"></path><path d="M0 235L13.7 223C27.3 211 54.7 187 82 197C109.3 207 136.7 251 163.8 264C191 277 218 259 245.2 253C272.3 247 299.7 253 327 236C354.3 219 381.7 179 409 169C436.3 159 463.7 179 491 207C518.3 235 545.7 271 573 290C600.3 309 627.7 311 654.8 307C682 303 709 293 736.2 276C763.3 259 790.7 235 818 224C845.3 213 872.7 215 886.3 216L900 217L900 107L886.3 106C872.7 105 845.3 103 818 94C790.7 85 763.3 69 736.2 69C709 69 682 85 654.8 92C627.7 99 600.3 97 573 89C545.7 81 518.3 67 491 58C463.7 49 436.3 45 409 56C381.7 67 354.3 93 327 106C299.7 119 272.3 119 245.2 115C218 111 191 103 163.8 98C136.7 93 109.3 91 82 88C54.7 85 27.3 81 13.7 79L0 77Z" fill="#cacbcb"></path><path d="M0 397L13.7 381C27.3 365 54.7 333 82 330C109.3 327 136.7 353 163.8 359C191 365 218 351 245.2 353C272.3 355 299.7 373 327 369C354.3 365 381.7 339 409 331C436.3 323 463.7 333 491 356C518.3 379 545.7 415 573 420C600.3 425 627.7 399 654.8 395C682 391 709 409 736.2 405C763.3 401 790.7 375 818 352C845.3 329 872.7 309 886.3 299L900 289L900 215L886.3 214C872.7 213 845.3 211 818 222C790.7 233 763.3 257 736.2 274C709 291 682 301 654.8 305C627.7 309 600.3 307 573 288C545.7 269 518.3 233 491 205C463.7 177 436.3 157 409 167C381.7 177 354.3 217 327 234C299.7 251 272.3 245 245.2 251C218 257 191 275 163.8 262C136.7 249 109.3 205 82 195C54.7 185 27.3 209 13.7 221L0 233Z" fill="#c1c2c2"></path><path d="M0 559L13.7 552C27.3 545 54.7 531 82 526C109.3 521 136.7 525 163.8 527C191 529 218 529 245.2 531C272.3 533 299.7 537 327 540C354.3 543 381.7 545 409 549C436.3 553 463.7 559 491 558C518.3 557 545.7 549 573 545C600.3 541 627.7 541 654.8 537C682 533 709 525 736.2 519C763.3 513 790.7 509 818 517C845.3 525 872.7 545 886.3 555L900 565L900 287L886.3 297C872.7 307 845.3 327 818 350C790.7 373 763.3 399 736.2 403C709 407 682 389 654.8 393C627.7 397 600.3 423 573 418C545.7 413 518.3 377 491 354C463.7 331 436.3 321 409 329C381.7 337 354.3 363 327 367C299.7 371 272.3 353 245.2 351C218 349 191 363 163.8 357C136.7 351 109.3 325 82 328C54.7 331 27.3 363 13.7 379L0 395Z" fill="#b0b1b1"></path><path d="M0 601L13.7 601C27.3 601 54.7 601 82 601C109.3 601 136.7 601 163.8 601C191 601 218 601 245.2 601C272.3 601 299.7 601 327 601C354.3 601 381.7 601 409 601C436.3 601 463.7 601 491 601C518.3 601 545.7 601 573 601C600.3 601 627.7 601 654.8 601C682 601 709 601 736.2 601C763.3 601 790.7 601 818 601C845.3 601 872.7 601 886.3 601L900 601L900 563L886.3 553C872.7 543 845.3 523 818 515C790.7 507 763.3 511 736.2 517C709 523 682 531 654.8 535C627.7 539 600.3 539 573 543C545.7 547 518.3 555 491 556C463.7 557 436.3 551 409 547C381.7 543 354.3 541 327 538C299.7 535 272.3 531 245.2 529C218 527 191 527 163.8 525C136.7 523 109.3 519 82 524C54.7 529 27.3 543 13.7 550L0 557Z" fill="#9fa1a1"></path></svg>