<svg id="visual" viewBox="0 0 900 600" width="900" height="600" xmlns="http://www.w3.org/2000/svg" xmlns:xlink="http://www.w3.org/1999/xlink" version="1.1"><rect x="0" y="0" width="900" height="600" fill="#ffffff"></rect><defs><linearGradient id="grad1_0" x1="33.3%" y1="0%" x2="100%" y2="100%"><stop offset="20%" stop-color="#ffffff" stop-opacity="1"></stop><stop offset="80%" stop-color="#ffffff" stop-opacity="1"></stop></linearGradient></defs><defs><linearGradient id="grad2_0" x1="0%" y1="0%" x2="66.7%" y2="100%"><stop offset="20%" stop-color="#ffffff" stop-opacity="1"></stop><stop offset="80%" stop-color="#ffffff" stop-opacity="1"></stop></linearGradient></defs><g transform="translate(900, 0)"><path d="M0 486.7C-69 486 -138.1 485.3 -186.3 449.7C-234.5 414.1 -261.9 343.6 -291.3 291.3C-320.8 239.1 -352.3 205.1 -385.3 159.6C-418.2 114.1 -452.5 57 -486.7 0L0 0Z" fill="#bfbebc"></path></g><g transform="translate(0, 600)"><path d="M0 -486.7C58.6 -472.9 117.2 -459 182.2 -439.8C247.1 -420.5 318.5 -396 344.2 -344.2C369.8 -292.4 349.7 -213.4 365.9 -151.5C382 -89.6 434.4 -44.8 486.7 0L0 0Z" fill="#bfbebc"></path></g></svg>